<svg width="98" height="19" viewBox="0 0 98 19" fill="none" xmlns="http://www.w3.org/2000/svg">
<path d="M4.172 3.216V8.352H10.676V10.932H4.172V18H0.932V0.647999H11.876V3.216H4.172ZM30.9097 9.324C30.9097 10.596 30.6977 11.776 30.2737 12.864C29.8577 13.944 29.2657 14.88 28.4977 15.672C27.7297 16.464 26.8057 17.084 25.7257 17.532C24.6457 17.972 23.4457 18.192 22.1257 18.192C20.8137 18.192 19.6177 17.972 18.5377 17.532C17.4577 17.084 16.5297 16.464 15.7537 15.672C14.9857 14.88 14.3897 13.944 13.9657 12.864C13.5417 11.776 13.3297 10.596 13.3297 9.324C13.3297 8.052 13.5417 6.876 13.9657 5.796C14.3897 4.708 14.9857 3.768 15.7537 2.976C16.5297 2.184 17.4577 1.568 18.5377 1.128C19.6177 0.68 20.8137 0.456 22.1257 0.456C23.0057 0.456 23.8337 0.559999 24.6097 0.767999C25.3857 0.967999 26.0977 1.256 26.7457 1.632C27.3937 2 27.9737 2.452 28.4857 2.988C29.0057 3.516 29.4457 4.108 29.8057 4.764C30.1657 5.42 30.4377 6.132 30.6217 6.9C30.8137 7.668 30.9097 8.476 30.9097 9.324ZM27.6097 9.324C27.6097 8.372 27.4817 7.52 27.2257 6.768C26.9697 6.008 26.6057 5.364 26.1337 4.836C25.6617 4.308 25.0857 3.904 24.4057 3.624C23.7337 3.344 22.9737 3.204 22.1257 3.204C21.2777 3.204 20.5137 3.344 19.8337 3.624C19.1617 3.904 18.5857 4.308 18.1057 4.836C17.6337 5.364 17.2697 6.008 17.0137 6.768C16.7577 7.52 16.6297 8.372 16.6297 9.324C16.6297 10.276 16.7577 11.132 17.0137 11.892C17.2697 12.644 17.6337 13.284 18.1057 13.812C18.5857 14.332 19.1617 14.732 19.8337 15.012C20.5137 15.292 21.2777 15.432 22.1257 15.432C22.9737 15.432 23.7337 15.292 24.4057 15.012C25.0857 14.732 25.6617 14.332 26.1337 13.812C26.6057 13.284 26.9697 12.644 27.2257 11.892C27.4817 11.132 27.6097 10.276 27.6097 9.324ZM50.2925 9.324C50.2925 10.596 50.0805 11.776 49.6565 12.864C49.2405 13.944 48.6485 14.88 47.8805 15.672C47.1125 16.464 46.1885 17.084 45.1085 17.532C44.0285 17.972 42.8285 18.192 41.5085 18.192C40.1965 18.192 39.0005 17.972 37.9205 17.532C36.8405 17.084 35.9125 16.464 35.1365 15.672C34.3685 14.88 33.7725 13.944 33.3485 12.864C32.9245 11.776 32.7125 10.596 32.7125 9.324C32.7125 8.052 32.9245 6.876 33.3485 5.796C33.7725 4.708 34.3685 3.768 35.1365 2.976C35.9125 2.184 36.8405 1.568 37.9205 1.128C39.0005 0.68 40.1965 0.456 41.5085 0.456C42.3885 0.456 43.2165 0.559999 43.9925 0.767999C44.7685 0.967999 45.4805 1.256 46.1285 1.632C46.7765 2 47.3565 2.452 47.8685 2.988C48.3885 3.516 48.8285 4.108 49.1885 4.764C49.5485 5.42 49.8205 6.132 50.0045 6.9C50.1965 7.668 50.2925 8.476 50.2925 9.324ZM46.9925 9.324C46.9925 8.372 46.8645 7.52 46.6085 6.768C46.3525 6.008 45.9885 5.364 45.5165 4.836C45.0445 4.308 44.4685 3.904 43.7885 3.624C43.1165 3.344 42.3565 3.204 41.5085 3.204C40.6605 3.204 39.8965 3.344 39.2165 3.624C38.5445 3.904 37.9685 4.308 37.4885 4.836C37.0165 5.364 36.6525 6.008 36.3965 6.768C36.1405 7.52 36.0125 8.372 36.0125 9.324C36.0125 10.276 36.1405 11.132 36.3965 11.892C36.6525 12.644 37.0165 13.284 37.4885 13.812C37.9685 14.332 38.5445 14.732 39.2165 15.012C39.8965 15.292 40.6605 15.432 41.5085 15.432C42.3565 15.432 43.1165 15.292 43.7885 15.012C44.4685 14.732 45.0445 14.332 45.5165 13.812C45.9885 13.284 46.3525 12.644 46.6085 11.892C46.8645 11.132 46.9925 10.276 46.9925 9.324Z" fill="#FE4A51"/>
<path d="M59.6193 15.48C60.2193 15.48 60.7233 15.408 61.1313 15.264C61.5393 15.12 61.8633 14.928 62.1033 14.688C62.3513 14.448 62.5273 14.168 62.6313 13.848C62.7433 13.528 62.7993 13.188 62.7993 12.828C62.7993 12.452 62.7393 12.116 62.6193 11.82C62.4993 11.516 62.3113 11.26 62.0553 11.052C61.7993 10.836 61.4673 10.672 61.0593 10.56C60.6593 10.448 60.1753 10.392 59.6073 10.392H56.3553V15.48H59.6193ZM56.3553 3.144V8.16H58.9233C60.0273 8.16 60.8593 7.96 61.4193 7.56C61.9873 7.16 62.2713 6.524 62.2713 5.652C62.2713 4.748 62.0153 4.104 61.5033 3.72C60.9913 3.336 60.1913 3.144 59.1033 3.144H56.3553ZM59.1033 0.647999C60.2393 0.647999 61.2113 0.755999 62.0193 0.972C62.8273 1.188 63.4873 1.496 63.9993 1.896C64.5193 2.296 64.8993 2.78 65.1393 3.348C65.3793 3.916 65.4993 4.556 65.4993 5.268C65.4993 5.676 65.4393 6.068 65.3193 6.444C65.1993 6.812 65.0113 7.16 64.7553 7.488C64.5073 7.808 64.1873 8.1 63.7953 8.364C63.4113 8.628 62.9513 8.852 62.4153 9.036C64.7993 9.572 65.9913 10.86 65.9913 12.9C65.9913 13.636 65.8513 14.316 65.5713 14.94C65.2913 15.564 64.8833 16.104 64.3473 16.56C63.8113 17.008 63.1513 17.36 62.3673 17.616C61.5833 17.872 60.6873 18 59.6793 18H53.1273V0.647999H59.1033ZM79.0882 15.336V18H68.9242V0.647999H72.1522V15.336H79.0882ZM97.3316 9.324C97.3316 10.596 97.1196 11.776 96.6956 12.864C96.2796 13.944 95.6876 14.88 94.9196 15.672C94.1516 16.464 93.2276 17.084 92.1476 17.532C91.0676 17.972 89.8676 18.192 88.5476 18.192C87.2356 18.192 86.0396 17.972 84.9596 17.532C83.8796 17.084 82.9516 16.464 82.1756 15.672C81.4076 14.88 80.8116 13.944 80.3876 12.864C79.9636 11.776 79.7516 10.596 79.7516 9.324C79.7516 8.052 79.9636 6.876 80.3876 5.796C80.8116 4.708 81.4076 3.768 82.1756 2.976C82.9516 2.184 83.8796 1.568 84.9596 1.128C86.0396 0.68 87.2356 0.456 88.5476 0.456C89.4276 0.456 90.2556 0.559999 91.0316 0.767999C91.8076 0.967999 92.5196 1.256 93.1676 1.632C93.8156 2 94.3956 2.452 94.9076 2.988C95.4276 3.516 95.8676 4.108 96.2276 4.764C96.5876 5.42 96.8596 6.132 97.0436 6.9C97.2356 7.668 97.3316 8.476 97.3316 9.324ZM94.0316 9.324C94.0316 8.372 93.9036 7.52 93.6476 6.768C93.3916 6.008 93.0276 5.364 92.5556 4.836C92.0836 4.308 91.5076 3.904 90.8276 3.624C90.1556 3.344 89.3956 3.204 88.5476 3.204C87.6996 3.204 86.9356 3.344 86.2556 3.624C85.5836 3.904 85.0076 4.308 84.5276 4.836C84.0556 5.364 83.6916 6.008 83.4356 6.768C83.1796 7.52 83.0516 8.372 83.0516 9.324C83.0516 10.276 83.1796 11.132 83.4356 11.892C83.6916 12.644 84.0556 13.284 84.5276 13.812C85.0076 14.332 85.5836 14.732 86.2556 15.012C86.9356 15.292 87.6996 15.432 88.5476 15.432C89.3956 15.432 90.1556 15.292 90.8276 15.012C91.5076 14.732 92.0836 14.332 92.5556 13.812C93.0276 13.284 93.3916 12.644 93.6476 11.892C93.9036 11.132 94.0316 10.276 94.0316 9.324Z" fill="#2D2D2D"/>
</svg>
